<?xml version="1.0" encoding="UTF-8"?>
<svg width="80px" height="80px" viewBox="0 0 80 80" version="1.1" xmlns="http://www.w3.org/2000/svg" xmlns:xlink="http://www.w3.org/1999/xlink">
    <!-- Generator: Sketch 61 (89581) - https://sketch.com -->
    <title>Artboard</title>
    <desc>Created with Sketch.</desc>
    <g id="Artboard" stroke="none" stroke-width="1" fill="none" fill-rule="evenodd">
        <g id="ToggleIcon" transform="translate(29.000000, 32.000000)">
            <path d="M15.1,1.5 C15.2198535,1.27064503 15.2217494,1.07216144 15.1056875,0.904549228 C14.9315946,0.653130906 14.645984,0.502198617 14.3401551,0.5 C14.2278228,0.500315732 14.1164572,0.520566824 14.0112243,0.559810502 L0.613330036,5.4952314 C0.239773414,5.63285691 -0.00610347335,5.99138175 -0.000111100644,6.38938913 C0.00633405153,6.7873965 0.263291929,7.13806675 0.640965925,7.26395757 L6.09799479,9.08273673 C6.37791183,9.17603393 6.59756324,9.39565638 6.69087274,9.67553651 L8.50989174,15.1318459 C8.63579916,15.5094701 8.98651565,15.7663941 9.38457551,15.7728384 C9.78263537,15.7788299 10.1412075,15.5329855 10.2788512,15.1594781 C10.5982089,14.2927775 10.8377272,13.6427521 10.997406,13.2094018" id="Nav_Outline" stroke="#FFFFFF" stroke-width="1.2" stroke-linecap="round" stroke-linejoin="round"></path>
            <path d="M22.023,1 C21.9053381,1.00033077 21.7886695,1.0215462 21.6784254,1.06265862 L7.64253623,6.23309956 C7.2511912,6.37727867 6.99360589,6.75287612 6.99988361,7.16983623 C7.00663567,7.58679634 7.27582964,7.95416517 7.67148811,8.08605079 L13.3883755,9.99143848 C13.6816219,10.0891784 13.9117329,10.3192591 14.0094857,10.6124668 L15.9151247,16.3286004 C16.0470277,16.7242067 16.414445,16.9933652 16.8314601,17.0001164 C17.2484752,17.0063933 17.6241221,16.7488419 17.7683203,16.3575485 L22.9395019,2.32354922 C23.0501059,2.02288432 23.0073889,1.6872041 22.8250059,1.42381348 C22.6426229,1.16042285 22.3434118,1.00230331 22.0230196,1 L22.023,1 Z" id="Nav_Full" fill="#FFFFFF" fill-rule="nonzero"></path>
        </g>
    </g>
</svg>